{"glyphs":{":":{"x_min":0,"x_max":296,"ha":296,"o":"m 67 376 l 229 376 l 229 536 l 67 536 z m 67 0 l 229 0 l 229 160 l 67 160 z"},"$":{"x_min":0,"x_max":646,"ha":646,"o":"m 280 -98 l 384 -98 l 384 1 b 510 14 596 86 596 198 l 596 200 b 596 312 531 373 379 414 l 379 566 b 420 555 463 534 503 507 l 570 624 b 515 662 455 688 384 697 l 384 758 l 280 758 l 280 700 b 154 687 70 614 70 504 l 70 502 b 70 383 141 329 285 290 l 285 131 b 226 143 176 171 122 212 l 44 98 b 110 48 194 14 280 3 z m 450 192 l 450 190 b 450 154 426 133 379 126 l 379 266 b 433 246 450 225 450 192 z m 216 511 l 216 513 b 216 545 236 569 285 575 l 285 439 b 230 459 216 479 216 511 z"},"?":{"x_min":0,"x_max":544,"ha":544,"o":"m 197 238 l 299 238 l 310 299 b 419 321 507 373 507 500 l 507 502 b 507 635 409 709 265 709 b 156 709 78 665 20 601 l 112 500 b 158 546 206 569 262 569 b 320 569 354 543 354 498 l 354 496 b 354 443 305 410 179 405 l 174 400 z m 164 0 l 326 0 l 326 160 l 164 160 z"},"<":{"x_min":0,"x_max":640,"ha":640,"o":"m 552 71 l 552 214 l 214 353 l 552 492 l 552 633 l 68 421 l 68 283 z"},"'":{"x_min":0,"x_max":286,"ha":286,"o":"m 57 381 l 136 381 l 245 695 l 245 700 l 75 700 z"},"=":{"x_min":0,"x_max":640,"ha":640,"o":"m 73 413 l 567 413 l 567 551 l 73 551 z m 73 153 l 567 153 l 567 291 l 73 291 z"},"a":{"x_min":0,"x_max":592,"ha":592,"o":"m 220 -10 b 294 -10 345 17 382 58 l 382 0 l 529 0 l 529 311 b 529 383 511 442 471 482 b 433 520 373 542 290 542 b 199 542 141 525 82 499 l 120 383 b 169 401 210 412 268 412 b 344 412 383 377 383 314 l 383 305 b 345 318 306 327 252 327 b 125 327 36 273 36 156 l 36 154 b 36 48 119 -10 220 -10 z m 266 95 b 217 95 183 119 183 160 l 183 162 b 183 210 223 236 288 236 b 325 236 359 228 385 216 l 385 189 b 385 134 337 95 266 95 z"},"L":{"x_min":0,"x_max":619,"ha":619,"o":"m 84 0 l 587 0 l 587 140 l 238 140 l 238 700 l 84 700 z"},"3":{"x_min":0,"x_max":621,"ha":621,"o":"m 311 -12 b 467 -12 563 85 563 217 l 563 219 b 563 349 470 399 375 415 l 552 584 l 552 700 l 79 700 l 79 568 l 354 568 l 187 400 l 211 302 l 275 302 b 361 302 412 270 412 213 l 412 211 b 412 159 371 126 313 126 b 242 126 192 156 144 210 l 38 109 b 98 38 185 -12 311 -12 z"},";":{"x_min":0,"x_max":296,"ha":296,"o":"m 67 376 l 229 376 l 229 536 l 67 536 z m 44 -162 b 163 -160 229 -107 229 25 l 229 160 l 67 160 l 67 0 l 129 0 b 134 -57 100 -92 31 -99 z"},"J":{"x_min":0,"x_max":564,"ha":564,"o":"m 243 -10 b 319 -10 382 12 425 55 b 467 97 491 159 491 242 l 491 700 l 333 700 l 333 249 b 333 168 297 133 239 133 b 190 133 151 159 111 203 l 14 95 b 62 38 134 -10 243 -10 z"},"V":{"x_min":0,"x_max":750,"ha":750,"o":"m 307 -5 l 443 -5 l 726 700 l 560 700 l 377 207 l 194 700 l 24 700 z"},"\"":{"x_min":0,"x_max":520,"ha":520,"o":"m 293 381 l 370 381 l 479 695 l 479 700 l 311 700 z m 57 381 l 134 381 l 243 695 l 243 700 l 75 700 z"},"7":{"x_min":0,"x_max":619,"ha":619,"o":"m 84 0 l 258 0 l 572 584 l 572 700 l 68 700 l 68 567 l 397 567 z"},"S":{"x_min":0,"x_max":640,"ha":640,"o":"m 333 -10 b 484 -10 590 68 590 207 l 590 209 b 590 331 510 382 368 419 b 247 450 217 465 217 511 l 217 513 b 217 547 248 574 307 574 b 366 574 427 548 489 505 l 569 621 b 498 678 411 710 309 710 b 166 710 64 626 64 499 l 64 497 b 64 358 155 319 296 283 b 413 253 437 233 437 194 l 437 192 b 437 151 399 126 336 126 b 256 126 190 159 127 211 l 36 102 b 120 27 227 -10 333 -10 z"},"}":{"x_min":0,"x_max":490,"ha":490,"o":"m 74 -141 b 257 -109 308 -45 308 57 b 308 72 305 109 305 126 b 305 204 337 229 415 229 l 441 229 l 441 345 l 415 345 b 337 345 305 370 305 448 b 305 465 308 502 308 517 b 308 619 257 683 74 715 l 47 614 b 153 584 169 556 169 495 b 169 475 166 442 166 421 b 166 348 203 309 270 287 b 203 265 166 226 166 153 b 166 132 169 99 169 79 b 169 18 153 -10 47 -40 z"},"Z":{"x_min":0,"x_max":708,"ha":708,"o":"m 63 0 l 646 0 l 646 135 l 261 135 l 646 583 l 646 700 l 75 700 l 75 565 l 448 565 l 63 117 z"},"x":{"x_min":0,"x_max":584,"ha":584,"o":"m 398 0 l 561 0 l 372 274 l 553 536 l 394 536 l 293 379 l 193 536 l 30 536 l 211 272 l 23 0 l 182 0 l 290 167 z"},")":{"x_min":0,"x_max":445,"ha":445,"o":"m 109 -141 b 293 -41 386 95 386 287 b 386 479 293 615 109 715 l 42 614 b 177 520 235 428 235 287 b 235 146 177 54 42 -40 z"},"&":{"x_min":0,"x_max":696,"ha":696,"o":"m 555 -14 l 668 65 l 565 168 b 600 215 630 267 657 316 l 544 378 b 522 335 499 294 476 258 l 383 351 b 470 385 530 440 530 534 l 530 536 b 530 634 452 712 333 712 b 198 712 121 624 121 528 l 121 526 b 121 478 136 434 170 386 b 82 346 34 283 34 194 l 34 192 b 34 68 135 -10 269 -10 b 350 -10 417 21 474 68 z m 303 432 b 274 465 262 488 262 519 l 262 521 b 262 563 289 592 330 592 b 369 592 396 567 396 527 l 396 525 b 396 481 364 455 303 432 z m 287 116 b 230 116 189 149 189 198 l 189 200 b 189 234 208 268 254 292 l 388 156 b 356 131 322 116 287 116 z"},"_":{"x_min":0,"x_max":600,"ha":600,"o":"m -2 -160 l 602 -160 l 602 -44 l -2 -44 z"},"v":{"x_min":0,"x_max":600,"ha":600,"o":"m 231 -4 l 369 -4 l 580 536 l 422 536 l 301 177 l 181 536 l 20 536 z"},"O":{"x_min":0,"x_max":850,"ha":850,"o":"m 424 -12 b 640 -12 797 151 797 350 l 797 352 b 797 551 642 712 426 712 b 210 712 53 549 53 350 l 53 348 b 53 149 208 -12 424 -12 z m 426 130 b 302 130 214 230 214 350 l 214 352 b 214 472 300 570 424 570 b 548 570 636 470 636 350 l 636 348 b 636 228 550 130 426 130 z"},"(":{"x_min":0,"x_max":445,"ha":445,"o":"m 336 -141 l 403 -40 b 268 54 210 146 210 287 b 210 428 268 520 403 614 l 336 715 b 152 615 59 479 59 287 b 59 95 152 -41 336 -141 z"},"C":{"x_min":0,"x_max":738,"ha":738,"o":"m 412 -12 b 547 -12 627 36 699 113 l 601 212 b 546 162 497 130 417 130 b 297 130 214 230 214 350 l 214 352 b 214 472 299 570 417 570 b 487 570 542 540 596 491 l 694 604 b 629 668 550 712 418 712 b 203 712 53 549 53 350 l 53 348 b 53 147 206 -12 412 -12 z"},"W":{"x_min":0,"x_max":1122,"ha":1122,"o":"m 269 -5 l 403 -5 l 561 453 l 719 -5 l 853 -5 l 1092 700 l 931 700 l 786 226 l 629 702 l 497 702 l 340 226 l 195 700 l 30 700 z"},"A":{"x_min":0,"x_max":790,"ha":790,"o":"m 24 0 l 181 0 l 245 157 l 541 157 l 605 0 l 766 0 l 466 705 l 324 705 z m 300 293 l 393 520 l 486 293 z"},"f":{"x_min":0,"x_max":382,"ha":382,"o":"m 94 0 l 246 0 l 246 406 l 367 406 l 367 530 l 244 530 l 244 551 b 244 591 264 609 299 609 b 325 609 346 604 368 596 l 368 722 b 340 731 308 737 260 737 b 206 737 165 723 137 695 b 109 667 94 624 94 565 l 94 531 l 31 531 l 31 406 l 94 406 z"},"Q":{"x_min":0,"x_max":850,"ha":850,"o":"m 807 88 l 735 149 b 774 207 797 276 797 350 l 797 352 b 797 551 642 712 426 712 b 210 712 53 549 53 350 l 53 348 b 53 149 208 -12 424 -12 b 502 -12 573 10 632 48 l 709 -21 z m 426 130 b 302 130 214 230 214 350 l 214 352 b 214 472 300 570 424 570 b 548 570 636 470 636 350 l 636 348 b 636 313 629 280 617 252 l 502 356 l 404 246 l 518 149 b 491 136 460 130 426 130 z"},"w":{"x_min":0,"x_max":861,"ha":861,"o":"m 189 -4 l 325 -4 l 430 325 l 533 -4 l 670 -4 l 837 536 l 686 536 l 598 210 l 496 538 l 365 538 l 264 211 l 178 536 l 24 536 z"},"-":{"x_min":0,"x_max":408,"ha":408,"o":"m 50 237 l 358 237 l 358 383 l 50 383 z"},"E":{"x_min":0,"x_max":670,"ha":670,"o":"m 84 0 l 617 0 l 617 137 l 237 137 l 237 284 l 567 284 l 567 421 l 237 421 l 237 563 l 612 563 l 612 700 l 84 700 z"},"s":{"x_min":0,"x_max":502,"ha":502,"o":"m 256 -10 b 372 -10 461 44 461 163 l 461 165 b 461 263 374 299 299 324 b 241 344 190 358 190 388 l 190 390 b 190 411 209 427 246 427 b 285 427 338 408 391 377 l 449 482 b 391 521 317 544 249 544 b 141 544 53 483 53 374 l 53 372 b 53 268 138 233 213 211 b 272 193 324 182 324 149 l 324 147 b 324 123 304 107 260 107 b 210 107 149 129 91 171 l 26 71 b 97 15 181 -10 256 -10 z"},">":{"x_min":0,"x_max":640,"ha":640,"o":"m 88 71 l 572 283 l 572 421 l 88 633 l 88 490 l 426 351 l 88 212 z"},"l":{"x_min":0,"x_max":302,"ha":302,"o":"m 75 0 l 227 0 l 227 730 l 75 730 z"},"8":{"x_min":0,"x_max":630,"ha":630,"o":"m 315 -10 b 470 -10 585 66 585 196 l 585 198 b 585 281 543 326 472 363 b 526 396 561 441 561 516 l 561 518 b 561 626 463 710 315 710 b 167 710 69 625 69 518 l 69 516 b 69 441 104 396 158 363 b 84 329 45 279 45 194 l 45 192 b 45 70 160 -10 315 -10 z m 315 414 b 254 414 215 451 215 500 l 215 502 b 215 545 252 583 315 583 b 378 583 415 544 415 501 l 415 499 b 415 450 376 414 315 414 z m 315 117 b 239 117 194 156 194 204 l 194 206 b 194 260 245 292 315 292 b 385 292 436 260 436 206 l 436 204 b 436 155 391 117 315 117 z"},"\\":{"x_min":0,"x_max":530,"ha":530,"o":"m 429 -128 l 558 -128 l 115 798 l -14 798 z"},"e":{"x_min":0,"x_max":613,"ha":613,"o":"m 322 -12 b 419 -12 491 26 541 88 l 454 165 b 412 126 375 110 324 110 b 256 110 208 146 193 215 l 566 215 b 567 229 568 243 568 255 b 568 407 486 546 307 546 b 151 546 42 420 42 267 l 42 265 b 42 101 161 -12 322 -12 z m 191 310 b 203 379 244 424 307 424 b 371 424 411 378 420 310 z"},"b":{"x_min":0,"x_max":675,"ha":675,"o":"m 387 -10 b 514 -10 631 88 631 267 l 631 269 b 631 448 512 546 387 546 b 308 546 257 509 220 459 l 220 730 l 68 730 l 68 0 l 220 0 l 220 70 b 256 27 306 -10 387 -10 z m 348 119 b 277 119 218 178 218 267 l 218 269 b 218 358 277 417 348 417 b 419 417 479 358 479 269 l 479 267 b 479 177 419 119 348 119 z"},"%":{"x_min":0,"x_max":860,"ha":860,"o":"m 214 350 b 316 350 385 431 385 529 l 385 531 b 385 629 317 708 216 708 b 114 708 45 628 45 529 l 45 527 b 45 429 113 350 214 350 z m 280 527 b 280 482 258 441 216 441 b 176 441 150 482 150 529 l 150 531 b 150 577 172 617 214 617 b 254 617 280 576 280 529 z m 395 377 l 115 0 l 234 0 l 465 323 l 745 700 l 626 700 z m 644 -8 b 746 -8 815 73 815 171 l 815 173 b 815 271 747 350 646 350 b 544 350 475 270 475 171 l 475 169 b 475 71 543 -8 644 -8 z m 646 83 b 606 83 580 124 580 171 l 580 173 b 580 219 602 259 644 259 b 684 259 710 218 710 171 l 710 169 b 710 124 688 83 646 83 z"},"m":{"x_min":0,"x_max":950,"ha":950,"o":"m 68 0 l 220 0 l 220 299 b 220 371 255 408 312 408 b 369 408 401 371 401 299 l 401 0 l 553 0 l 553 299 b 553 371 588 408 645 408 b 702 408 734 371 734 299 l 734 0 l 886 0 l 886 349 b 886 478 818 546 705 546 b 632 546 576 516 529 461 b 501 515 448 546 378 546 b 301 546 255 505 220 460 l 220 536 l 68 536 z"},"#":{"x_min":0,"x_max":700,"ha":700,"o":"m 630 278 l 541 278 l 567 426 l 665 426 l 665 554 l 589 554 l 614 700 l 482 700 l 457 554 l 312 554 l 337 700 l 205 700 l 180 554 l 70 554 l 70 426 l 158 426 l 132 278 l 35 278 l 35 150 l 110 150 l 85 0 l 217 0 l 243 150 l 387 150 l 362 0 l 494 0 l 519 150 l 630 150 z m 287 430 l 438 430 l 412 274 l 261 274 z"},",":{"x_min":0,"x_max":286,"ha":286,"o":"m 39 -162 b 158 -160 224 -107 224 25 l 224 160 l 62 160 l 62 0 l 124 0 b 129 -57 95 -92 26 -99 z"},"n":{"x_min":0,"x_max":623,"ha":623,"o":"m 68 0 l 220 0 l 220 299 b 220 371 257 408 315 408 b 373 408 407 371 407 299 l 407 0 l 559 0 l 559 347 b 559 470 492 546 377 546 b 300 546 255 505 220 460 l 220 536 l 68 536 z"},"h":{"x_min":0,"x_max":623,"ha":623,"o":"m 68 0 l 220 0 l 220 299 b 220 371 257 408 315 408 b 373 408 407 371 407 299 l 407 0 l 559 0 l 559 347 b 559 470 492 546 377 546 b 300 546 255 505 220 460 l 220 730 l 68 730 z"},"z":{"x_min":0,"x_max":563,"ha":563,"o":"m 50 0 l 516 0 l 516 123 l 238 123 l 516 429 l 516 536 l 59 536 l 59 413 l 327 413 l 50 107 z"},"B":{"x_min":0,"x_max":722,"ha":722,"o":"m 84 0 l 417 0 b 575 0 679 64 679 192 l 679 194 b 679 288 629 335 548 366 b 598 394 640 438 640 517 l 640 519 b 640 567 624 606 592 638 b 552 678 489 700 409 700 l 84 700 z m 234 417 l 234 565 l 386 565 b 451 565 487 539 487 493 l 487 491 b 487 439 444 417 376 417 z m 234 135 l 234 289 l 412 289 b 491 289 526 260 526 213 l 526 211 b 526 159 485 135 417 135 z"},"K":{"x_min":0,"x_max":730,"ha":730,"o":"m 84 0 l 238 0 l 238 214 l 319 298 l 536 0 l 721 0 l 423 403 l 708 700 l 522 700 l 238 394 l 238 700 l 84 700 z"},"R":{"x_min":0,"x_max":723,"ha":723,"o":"m 84 0 l 238 0 l 238 224 l 359 224 l 509 0 l 689 0 l 518 250 b 607 283 668 354 668 467 l 668 469 b 668 535 647 590 608 629 b 562 675 493 700 404 700 l 84 700 z m 238 360 l 238 561 l 391 561 b 466 561 512 527 512 461 l 512 459 b 512 400 469 360 394 360 z"},"T":{"x_min":0,"x_max":648,"ha":648,"o":"m 247 0 l 401 0 l 401 558 l 614 558 l 614 700 l 34 700 l 34 558 l 247 558 z"},"P":{"x_min":0,"x_max":668,"ha":668,"o":"m 84 0 l 238 0 l 238 210 l 355 210 b 512 210 638 294 638 456 l 638 458 b 638 601 537 700 370 700 l 84 700 z m 238 347 l 238 561 l 357 561 b 434 561 482 524 482 455 l 482 453 b 482 393 437 347 360 347 z"},"|":{"x_min":0,"x_max":350,"ha":350,"o":"m 115 -128 l 235 -128 l 235 798 l 115 798 z"},"t":{"x_min":0,"x_max":415,"ha":415,"o":"m 249 -9 b 300 -9 337 3 369 22 l 369 144 b 347 132 322 125 294 125 b 260 125 245 142 245 177 l 245 406 l 371 406 l 371 536 l 245 536 l 245 673 l 93 673 l 93 536 l 29 536 l 29 406 l 93 406 l 93 152 b 93 28 156 -9 249 -9 z"},"M":{"x_min":0,"x_max":868,"ha":868,"o":"m 84 0 l 235 0 l 235 454 l 430 158 l 434 158 l 631 457 l 631 0 l 784 0 l 784 700 l 618 700 l 434 404 l 250 700 l 84 700 z"},"g":{"x_min":0,"x_max":675,"ha":675,"o":"m 308 -162 b 412 -162 489 -140 539 -90 b 584 -45 607 25 607 121 l 607 536 l 455 536 l 455 466 b 414 511 365 546 282 546 b 159 546 44 456 44 296 l 44 294 b 44 135 157 44 282 44 b 363 44 412 77 457 131 l 457 105 b 457 9 408 -41 304 -41 b 233 -41 178 -23 123 8 l 71 -106 b 139 -142 221 -162 308 -162 z m 326 170 b 252 170 196 220 196 294 l 196 296 b 196 369 252 420 326 420 b 400 420 457 369 457 296 l 457 294 b 457 221 400 170 326 170 z"},"j":{"x_min":0,"x_max":302,"ha":302,"o":"m 71 595 l 231 595 l 231 730 l 71 730 z m 55 -163 b 167 -163 227 -109 227 9 l 227 536 l 75 536 l 75 21 b 75 -24 53 -41 21 -41 b 10 -41 1 -40 -11 -38 l -11 -157 b 10 -161 27 -163 55 -163 z"},"i":{"x_min":0,"x_max":302,"ha":302,"o":"m 71 595 l 231 595 l 231 730 l 71 730 z m 75 0 l 227 0 l 227 536 l 75 536 z"},"y":{"x_min":0,"x_max":600,"ha":600,"o":"m 196 -163 b 287 -163 331 -122 372 -13 l 578 536 l 420 536 l 303 171 l 181 536 l 20 536 l 230 -2 b 217 -29 203 -37 177 -37 b 157 -37 132 -28 112 -16 l 61 -126 b 100 -149 141 -163 196 -163 z"},"@":{"x_min":0,"x_max":980,"ha":980,"o":"m 499 -162 b 603 -162 687 -134 764 -87 l 744 -55 b 669 -99 598 -122 499 -122 b 263 -122 95 54 95 274 b 95 493 265 672 491 672 b 716 672 885 501 885 316 b 885 183 829 112 758 112 b 712 112 685 139 685 175 b 685 183 686 196 688 206 l 735 475 l 617 494 l 606 441 b 578 479 537 509 468 509 b 351 509 244 399 244 258 b 244 139 325 65 427 65 b 492 65 541 94 575 125 b 600 96 647 65 728 65 b 838 65 927 149 927 316 b 927 521 736 712 491 712 b 246 712 53 513 53 274 b 53 35 243 -162 499 -162 z m 462 168 b 407 168 368 203 368 265 b 368 345 423 406 488 406 b 542 406 581 369 581 312 b 581 230 525 168 462 168 z"},".":{"x_min":0,"x_max":286,"ha":286,"o":"m 62 0 l 224 0 l 224 160 l 62 160 z"},"p":{"x_min":0,"x_max":675,"ha":675,"o":"m 68 -160 l 220 -160 l 220 70 b 256 27 306 -10 387 -10 b 514 -10 631 88 631 267 l 631 269 b 631 448 512 546 387 546 b 308 546 257 509 220 459 l 220 536 l 68 536 z m 348 119 b 277 119 218 178 218 267 l 218 269 b 218 358 277 417 348 417 b 419 417 479 358 479 269 l 479 267 b 479 177 419 119 348 119 z"},"X":{"x_min":0,"x_max":732,"ha":732,"o":"m 31 0 l 206 0 l 364 240 l 521 0 l 701 0 l 457 358 l 691 700 l 516 700 l 367 473 l 221 700 l 41 700 l 275 356 z"},"*":{"x_min":0,"x_max":430,"ha":430,"o":"m 174 372 l 256 372 l 240 492 l 337 418 l 379 490 l 267 537 l 379 584 l 337 656 l 240 582 l 256 702 l 174 702 l 190 582 l 93 656 l 51 584 l 163 537 l 51 490 l 93 418 l 190 492 z"},"Y":{"x_min":0,"x_max":716,"ha":716,"o":"m 281 0 l 435 0 l 435 279 l 704 700 l 529 700 l 359 419 l 192 700 l 12 700 l 281 276 z"},"c":{"x_min":0,"x_max":571,"ha":571,"o":"m 321 -12 b 428 -12 488 29 540 86 l 451 176 b 414 141 379 119 328 119 b 245 119 192 185 192 267 l 192 269 b 192 348 246 415 322 415 b 376 415 410 392 444 356 l 537 456 b 487 512 424 546 323 546 b 159 546 42 420 42 267 l 42 265 b 42 112 160 -12 321 -12 z"},"!":{"x_min":0,"x_max":324,"ha":324,"o":"m 120 238 l 204 238 l 251 680 l 251 700 l 73 700 l 73 680 z m 81 0 l 243 0 l 243 160 l 81 160 z"},"/":{"x_min":0,"x_max":530,"ha":530,"o":"m -28 -128 l 101 -128 l 544 798 l 415 798 z"},"[":{"x_min":0,"x_max":465,"ha":465,"o":"m 83 -130 l 406 -130 l 406 -11 l 229 -11 l 229 581 l 406 581 l 406 700 l 83 700 z"},"6":{"x_min":0,"x_max":662,"ha":662,"o":"m 339 -12 b 491 -12 606 87 606 230 l 606 232 b 606 378 499 455 360 455 b 291 455 250 433 215 410 b 225 502 269 572 356 572 b 416 572 453 551 499 516 l 580 635 b 518 684 456 712 361 712 b 152 712 54 546 54 330 l 54 328 b 54 189 86 114 137 63 b 186 14 248 -12 339 -12 z m 333 120 b 257 120 211 165 211 224 l 211 226 b 211 285 255 327 331 327 b 407 327 453 284 453 225 l 453 223 b 453 163 409 120 333 120 z"},"r":{"x_min":0,"x_max":418,"ha":418,"o":"m 68 0 l 220 0 l 220 198 b 220 326 282 387 383 387 l 391 387 l 391 546 b 301 550 251 502 220 428 l 220 536 l 68 536 z"},"2":{"x_min":0,"x_max":623,"ha":623,"o":"m 49 0 l 567 0 l 567 133 l 262 133 l 376 221 b 500 317 560 375 560 492 l 560 494 b 560 625 464 710 319 710 b 194 710 127 659 58 565 l 166 478 b 218 542 255 572 309 572 b 364 572 403 540 403 481 b 403 423 369 385 282 313 l 49 122 z"},"{":{"x_min":0,"x_max":490,"ha":490,"o":"m 416 -141 l 443 -40 b 337 -10 321 18 321 79 b 321 99 324 132 324 153 b 324 226 287 265 220 287 b 287 309 324 348 324 421 b 324 442 321 475 321 495 b 321 556 337 584 443 614 l 416 715 b 233 683 182 619 182 517 b 182 502 185 465 185 448 b 185 370 153 345 75 345 l 49 345 l 49 229 l 75 229 b 153 229 185 204 185 126 b 185 109 182 72 182 57 b 182 -45 233 -109 416 -141 z"},"9":{"x_min":0,"x_max":662,"ha":662,"o":"m 302 -12 b 501 -12 608 143 608 370 l 608 372 b 608 510 575 586 525 636 b 472 689 417 712 323 712 b 165 712 56 608 56 467 l 56 465 b 56 323 154 239 306 239 b 367 239 414 258 448 287 b 438 193 392 128 306 128 b 247 128 204 147 153 188 l 72 71 b 131 22 200 -12 302 -12 z m 331 367 b 255 367 209 410 209 472 l 209 474 b 209 536 252 580 328 580 b 405 580 451 535 451 473 l 451 471 b 451 411 407 367 331 367 z"}," ":{"x_min":0,"x_max":300,"ha":300,"o":""},"I":{"x_min":0,"x_max":336,"ha":336,"o":"m 91 0 l 245 0 l 245 700 l 91 700 z"},"H":{"x_min":0,"x_max":760,"ha":760,"o":"m 84 0 l 238 0 l 238 281 l 522 281 l 522 0 l 676 0 l 676 700 l 522 700 l 522 423 l 238 423 l 238 700 l 84 700 z"},"4":{"x_min":0,"x_max":689,"ha":689,"o":"m 398 0 l 545 0 l 545 151 l 639 151 l 639 276 l 545 276 l 545 705 l 415 705 l 31 260 l 56 151 l 398 151 z m 212 276 l 398 494 l 398 276 z"},"~":{"x_min":0,"x_max":510,"ha":510,"o":"m 130 224 b 144 256 156 273 187 273 b 223 273 275 234 337 234 b 407 234 438 288 461 372 l 380 397 b 366 365 354 348 323 348 b 287 348 235 387 173 387 b 103 387 72 333 49 249 z"},"D":{"x_min":0,"x_max":782,"ha":782,"o":"m 84 0 l 357 0 b 577 0 729 153 729 350 l 729 352 b 729 549 577 700 357 700 l 84 700 z m 238 139 l 238 561 l 357 561 b 483 561 568 474 568 350 l 568 348 b 568 224 483 139 357 139 z"},"^":{"x_min":0,"x_max":500,"ha":500,"o":"m 50 493 l 158 493 l 249 610 l 340 493 l 450 493 l 302 700 l 198 700 z"},"0":{"x_min":0,"x_max":730,"ha":730,"o":"m 364 -12 b 551 -12 676 147 676 350 l 676 352 b 676 555 551 712 366 712 b 180 712 54 553 54 350 l 54 348 b 54 145 177 -12 364 -12 z m 366 127 b 273 127 212 222 212 350 l 212 352 b 212 480 272 573 364 573 b 456 573 518 477 518 350 l 518 348 b 518 221 459 127 366 127 z"},"F":{"x_min":0,"x_max":656,"ha":656,"o":"m 84 0 l 238 0 l 238 271 l 572 271 l 572 411 l 238 411 l 238 560 l 617 560 l 617 700 l 84 700 z"},"`":{"x_min":0,"x_max":500,"ha":500,"o":"m 240 595 l 352 595 l 241 772 l 110 715 z"},"k":{"x_min":0,"x_max":592,"ha":592,"o":"m 68 0 l 220 0 l 220 163 l 273 219 l 413 0 l 587 0 l 376 325 l 580 536 l 398 536 l 220 341 l 220 730 l 68 730 z"},"u":{"x_min":0,"x_max":623,"ha":623,"o":"m 246 -10 b 323 -10 368 31 403 76 l 403 0 l 555 0 l 555 536 l 403 536 l 403 237 b 403 165 366 128 308 128 b 250 128 216 165 216 237 l 216 536 l 64 536 l 64 189 b 64 66 131 -10 246 -10 z"},"]":{"x_min":0,"x_max":465,"ha":465,"o":"m 59 -130 l 382 -130 l 382 700 l 59 700 l 59 581 l 236 581 l 236 -11 l 59 -11 z"},"U":{"x_min":0,"x_max":756,"ha":756,"o":"m 376 -11 b 564 -11 683 93 683 305 l 683 700 l 529 700 l 529 299 b 529 188 472 131 378 131 b 284 131 227 190 227 304 l 227 700 l 73 700 l 73 300 b 73 94 188 -11 376 -11 z"},"o":{"x_min":0,"x_max":664,"ha":664,"o":"m 331 -12 b 498 -12 622 113 622 267 l 622 269 b 622 423 499 546 333 546 b 166 546 42 421 42 267 l 42 265 b 42 111 165 -12 331 -12 z m 333 119 b 249 119 192 188 192 267 l 192 269 b 192 348 244 415 331 415 b 415 415 472 346 472 267 l 472 265 b 472 186 420 119 333 119 z"},"N":{"x_min":0,"x_max":790,"ha":790,"o":"m 84 0 l 236 0 l 236 445 l 575 0 l 706 0 l 706 700 l 554 700 l 554 269 l 226 700 l 84 700 z"},"+":{"x_min":0,"x_max":640,"ha":640,"o":"m 249 103 l 391 103 l 391 283 l 572 283 l 572 421 l 391 421 l 391 601 l 249 601 l 249 421 l 68 421 l 68 283 l 249 283 z"},"G":{"x_min":0,"x_max":784,"ha":784,"o":"m 421 -12 b 549 -12 648 38 720 99 l 720 403 l 416 403 l 416 270 l 571 270 l 571 170 b 532 142 482 128 426 128 b 302 128 214 222 214 350 l 214 352 b 214 471 303 570 415 570 b 496 570 544 544 598 499 l 695 616 b 622 678 546 712 420 712 b 208 712 53 549 53 350 l 53 348 b 53 141 203 -12 421 -12 z"},"q":{"x_min":0,"x_max":675,"ha":675,"o":"m 455 -160 l 607 -160 l 607 536 l 455 536 l 455 466 b 419 509 369 546 288 546 b 161 546 44 448 44 269 l 44 267 b 44 88 163 -10 288 -10 b 367 -10 418 27 455 77 z m 327 119 b 256 119 196 178 196 267 l 196 269 b 196 359 256 417 327 417 b 398 417 457 358 457 269 l 457 267 b 457 178 398 119 327 119 z"},"d":{"x_min":0,"x_max":675,"ha":675,"o":"m 288 -10 b 367 -10 418 27 455 77 l 455 0 l 607 0 l 607 730 l 455 730 l 455 466 b 419 509 369 546 288 546 b 161 546 44 448 44 269 l 44 267 b 44 88 163 -10 288 -10 z m 327 119 b 256 119 196 178 196 267 l 196 269 b 196 359 256 417 327 417 b 398 417 457 358 457 269 l 457 267 b 457 178 398 119 327 119 z"},"1":{"x_min":0,"x_max":422,"ha":422,"o":"m 178 0 l 330 0 l 330 705 l 225 705 l 24 645 l 56 519 l 178 549 z"},"5":{"x_min":0,"x_max":630,"ha":630,"o":"m 305 -12 b 466 -12 571 82 571 230 l 571 232 b 571 390 462 456 326 456 b 287 456 262 451 234 444 l 242 565 l 540 565 l 540 700 l 110 700 l 90 355 l 179 296 b 212 310 252 322 296 322 b 369 322 420 287 420 227 l 420 225 b 420 163 375 128 303 128 b 241 128 189 156 136 204 l 43 93 b 111 28 193 -12 305 -12 z"}}}
